<?xml version="1.0" encoding="UTF-8"?>
<!DOCTYPE svg PUBLIC "-//W3C//DTD SVG 1.1//EN" "http://www.w3.org/Graphics/SVG/1.1/DTD/svg11.dtd">
<svg xmlns="http://www.w3.org/2000/svg" version="1.1" width="1158px" height="925px" style="shape-rendering:geometricPrecision; text-rendering:geometricPrecision; image-rendering:optimizeQuality; fill-rule:evenodd; clip-rule:evenodd" xmlns:xlink="http://www.w3.org/1999/xlink">
<g><path style="opacity:0.977" fill="#001b2e" d="M 10.5,-0.5 C 10.8333,-0.5 11.1667,-0.5 11.5,-0.5C 37.4693,33.3093 66.4693,64.4759 98.5,93C 122.788,111.619 146.788,130.619 170.5,150C 183.066,159.117 196.399,166.951 210.5,173.5C 211.514,174.674 212.847,175.34 214.5,175.5C 259.867,198.017 304.534,221.85 348.5,247C 355.584,256.755 363.417,265.922 372,274.5C 375.875,281.329 378.208,288.662 379,296.5C 381.333,299.833 383.667,303.167 386,306.5C 415.081,241.871 463.581,199.371 531.5,179C 526.223,177.58 526.223,176.413 531.5,175.5C 533.96,175.637 535.96,176.637 537.5,178.5C 603.388,166.547 661.054,182.713 710.5,227C 731.172,246.327 748.005,268.494 761,293.5C 763.462,299.681 765.462,306.014 767,312.5C 771.958,284.73 785.458,262.23 807.5,245C 849.924,220.787 892.924,197.621 936.5,175.5C 949.583,169.792 962.249,163.292 974.5,156C 1024.9,119.949 1071.4,79.1159 1114,33.5C 1119.39,22.0484 1126.72,12.0484 1136,3.5C 1141.03,6.8682 1145.03,11.2015 1148,16.5C 1149.66,45.1907 1146,73.1907 1137,100.5C 1132.05,114.398 1126.55,128.064 1120.5,141.5C 1120.56,142.737 1121.06,143.737 1122,144.5C 1131.18,139.158 1139.35,132.491 1146.5,124.5C 1152.52,129.545 1156.19,135.878 1157.5,143.5C 1157.5,145.833 1157.5,148.167 1157.5,150.5C 1155.78,161.957 1151.28,172.291 1144,181.5C 1133.95,212.188 1116.78,238.021 1092.5,259C 1100.19,259.074 1107.86,258.574 1115.5,257.5C 1107.83,286.681 1091.83,310.181 1067.5,328C 1072.53,328.171 1077.53,328.671 1082.5,329.5C 1075.62,355.883 1059.62,374.383 1034.5,385C 1042.55,385.854 1048.89,389.521 1053.5,396C 1045.36,407.809 1035.03,417.142 1022.5,424C 1029.38,425.89 1033.88,430.056 1036,436.5C 1028.46,445.704 1019.96,453.871 1010.5,461C 1011.89,462.02 1013.39,462.853 1015,463.5C 1015.62,464.449 1015.45,465.282 1014.5,466C 1010.93,467.075 1007.93,466.242 1005.5,463.5C 997.111,466.931 988.444,469.431 979.5,471C 989.854,476.298 992.188,483.964 986.5,494C 972.306,505.095 956.306,512.428 938.5,516C 954.818,519.189 956.818,526.522 944.5,538C 939.168,542.671 933.168,546.337 926.5,549C 915.447,553.795 904.114,557.795 892.5,561C 900.985,567.807 904.652,576.641 903.5,587.5C 885.776,587.18 868.109,588.013 850.5,590C 854.903,595.673 853.403,599.173 846,600.5C 827.983,596.691 809.816,595.358 791.5,596.5C 783.433,590.714 775.266,585.047 767,579.5C 760.886,583.474 754.719,583.474 748.5,579.5C 745.472,583.361 742.639,587.361 740,591.5C 735.472,590.143 732.972,587.143 732.5,582.5C 733.421,579.383 734.255,576.383 735,573.5C 729.642,566.976 724.475,560.31 719.5,553.5C 720.283,551.712 721.616,550.712 723.5,550.5C 731.421,565.294 743.754,573.294 760.5,574.5C 760.043,566.759 759.043,559.092 757.5,551.5C 755.012,549.612 752.012,548.945 748.5,549.5C 743.063,549.11 738.396,547.11 734.5,543.5C 740.925,543.559 747.592,543.393 754.5,543C 756.586,542.685 758.586,542.185 760.5,541.5C 770.147,563.478 786.814,575.978 810.5,579C 814.867,578.133 817.867,575.633 819.5,571.5C 818.807,570.482 818.141,569.482 817.5,568.5C 816.301,562.508 816.301,556.508 817.5,550.5C 820.56,555.197 824.893,557.53 830.5,557.5C 840.373,560.803 850.373,563.803 860.5,566.5C 864.748,566.544 867.748,564.71 869.5,561C 867.735,557.404 865.402,554.237 862.5,551.5C 863.043,551.44 863.376,551.107 863.5,550.5C 860.374,542.705 855.374,536.372 848.5,531.5C 853.035,530.679 857.369,530.346 861.5,530.5C 862.627,531.122 863.627,531.955 864.5,533C 880.077,534.309 895.411,532.975 910.5,529C 906.271,524.602 901.938,520.436 897.5,516.5C 898.525,516.103 898.692,515.437 898,514.5C 895.167,511.667 892.333,508.833 889.5,506C 903.491,504.26 917.491,502.594 931.5,501C 937.883,499.65 943.883,497.317 949.5,494C 950.738,493.31 950.738,492.81 949.5,492.5C 950.209,491.596 951.209,491.263 952.5,491.5C 953.259,487.094 951.925,483.761 948.5,481.5C 935.712,473.115 921.712,467.448 906.5,464.5C 926.126,462.527 945.793,461.027 965.5,460C 968.362,459.07 970.695,457.403 972.5,455C 970.527,454.505 968.527,454.338 966.5,454.5C 972.739,451.042 979.073,447.542 985.5,444C 955.744,433.616 925.077,428.45 893.5,428.5C 915.53,425.02 937.53,421.353 959.5,417.5C 963.247,417.608 966.914,417.108 970.5,416C 984.59,409.415 998.923,403.415 1013.5,398C 1006.83,394.577 999.827,391.911 992.5,390C 981.061,388.362 969.728,387.195 958.5,386.5C 959.5,386.5 960.5,386.5 961.5,386.5C 961.979,382.208 964.312,379.541 968.5,378.5C 971.452,379.068 974.119,380.234 976.5,382C 977.833,382.667 979.167,382.667 980.5,382C 1008.65,370.424 1036.65,358.59 1064.5,346.5C 1064.5,341.833 1064.5,337.167 1064.5,332.5C 1064.5,331.5 1064.5,330.5 1064.5,329.5C 1061.69,329.025 1059.69,330.025 1058.5,332.5C 1055.53,336.464 1051.86,339.798 1047.5,342.5C 1039.68,341.508 1031.68,341.174 1023.5,341.5C 1023.66,338.482 1023.5,335.482 1023,332.5C 1022.65,330.82 1021.65,329.82 1020,329.5C 1010.41,333.882 1000.58,337.549 990.5,340.5C 992.869,335.3 996.869,332.133 1002.5,331C 998,329.208 993.333,328.375 988.5,328.5C 1000.64,320.437 1013.98,315.104 1028.5,312.5C 1028.61,313.117 1028.94,313.617 1029.5,314C 1032.83,314.667 1036.17,314.667 1039.5,314C 1057.38,304.125 1072.88,291.292 1086,275.5C 1090.49,290.347 1093.66,290.014 1095.5,274.5C 1098.75,274.974 1102.08,274.974 1105.5,274.5C 1104.65,270.647 1102.32,267.981 1098.5,266.5C 1083,272.613 1069.33,269.946 1057.5,258.5C 1073.48,240.683 1089.65,223.017 1106,205.5C 1108.46,200.077 1111.29,194.91 1114.5,190C 1114.25,188.251 1113.25,187.418 1111.5,187.5C 1112.69,186.143 1113.69,184.643 1114.5,183C 1114,181.167 1112.83,180 1111,179.5C 1104.35,183.983 1097.85,188.65 1091.5,193.5C 1083.44,194.515 1076.11,197.849 1069.5,203.5C 1066.12,200.122 1062.46,197.122 1058.5,194.5C 1057.42,193.635 1057.25,192.635 1058,191.5C 1063.24,184.725 1066.41,177.392 1067.5,169.5C 1070.1,166.803 1071.76,163.637 1072.5,160C 1072.67,155.983 1071,154.483 1067.5,155.5C 1065.53,154.166 1063.53,152.832 1061.5,151.5C 1068.6,142.289 1074.93,132.623 1080.5,122.5C 1089.19,107.896 1096.03,92.5631 1101,76.5C 1049.49,128.308 991.987,171.975 928.5,207.5C 923.505,207.125 921.505,209.458 922.5,214.5C 919.554,223.058 915.554,231.058 910.5,238.5C 909.432,237.566 908.099,237.232 906.5,237.5C 903.043,232.299 898.376,229.965 892.5,230.5C 892.083,229.876 891.416,229.543 890.5,229.5C 852.713,238.8 821.213,258.133 796,287.5C 790.81,298.402 786.81,309.735 784,321.5C 783.285,390.466 765.785,454.8 731.5,514.5C 731.855,515.522 732.522,516.189 733.5,516.5C 733.918,517.222 734.584,517.722 735.5,518C 732.73,523.929 728.73,528.762 723.5,532.5C 720.801,529.964 717.968,527.631 715,525.5C 713.739,525.759 712.739,526.426 712,527.5C 712.814,533.111 713.147,538.777 713,544.5C 709.599,541.365 706.933,537.698 705,533.5C 702.815,535.54 700.315,536.874 697.5,537.5C 713.653,505.193 729.82,472.86 746,440.5C 749.503,420.151 753.003,399.817 756.5,379.5C 752.577,358.052 748.077,336.719 743,315.5C 683.967,203.933 596.8,174.766 481.5,228C 416.737,274.91 390.57,338.076 403,417.5C 406.4,436.699 412.4,455.032 421,472.5C 436.841,500.179 452.175,528.179 467,556.5C 472.218,568.705 475.885,581.372 478,594.5C 482.93,607.552 486.93,620.885 490,634.5C 490.5,667.165 490.667,699.832 490.5,732.5C 495.833,732.5 501.167,732.5 506.5,732.5C 506.884,674.481 506.051,616.481 504,558.5C 483.333,536.5 462.667,514.5 442,492.5C 440.466,464.49 438.8,436.49 437,408.5C 422.119,391.897 424.953,379.397 445.5,371C 462.244,372.914 469.577,382.414 467.5,399.5C 466.833,399.5 466.5,399.833 466.5,400.5C 466.608,402.514 465.942,404.18 464.5,405.5C 462.83,405.751 461.33,406.418 460,407.5C 458.894,412.769 458.227,418.103 458,423.5C 457.333,438.167 457.333,452.833 458,467.5C 458.227,472.897 458.894,478.231 460,483.5C 478.924,506.426 499.257,528.092 521,548.5C 523.798,571.054 525.464,593.721 526,616.5C 526.816,655.186 526.316,693.853 524.5,732.5C 528.167,732.5 531.833,732.5 535.5,732.5C 535.5,662.167 535.5,591.833 535.5,521.5C 542.142,593.567 542.142,665.733 535.5,738C 530.566,740.938 525.233,742.105 519.5,741.5C 519.702,680.486 518.869,619.486 517,558.5C 511.068,618.055 509.235,677.721 511.5,737.5C 502.833,737.5 494.167,737.5 485.5,737.5C 486.654,694.284 484.154,651.284 478,608.5C 477.667,607.833 477.333,607.167 477,606.5C 470.994,618.907 466.327,618.24 463,604.5C 459.828,601.331 455.995,599.664 451.5,599.5C 450.833,596.833 450.167,596.833 449.5,599.5C 448.833,599.833 448.167,600.167 447.5,600.5C 446.5,600.5 445.5,600.5 444.5,600.5C 441.825,592.313 437.491,585.147 431.5,579C 432.525,576.929 433.358,574.762 434,572.5C 434.667,566.5 434.667,560.5 434,554.5C 425.038,564.643 414.538,572.643 402.5,578.5C 399.688,578.074 398.688,576.741 399.5,574.5C 410.603,568.576 420.436,560.909 429,551.5C 432.831,546.178 432.331,541.512 427.5,537.5C 418.939,544.447 409.272,549.281 398.5,552C 394.57,558.02 391.904,564.52 390.5,571.5C 387.377,569.279 385.211,566.279 384,562.5C 372.426,577.185 357.593,582.852 339.5,579.5C 340.791,579.737 341.791,579.404 342.5,578.5C 366.017,575.337 381.684,563.004 389.5,541.5C 387.935,537.473 386.602,533.473 385.5,529.5C 389.161,526.335 393.161,523.669 397.5,521.5C 395.032,517.533 392.032,514.033 388.5,511C 385.634,509.543 382.634,509.21 379.5,510C 375.481,511.672 371.814,513.839 368.5,516.5C 367.213,513.594 366.213,510.594 365.5,507.5C 372.385,503.124 378.551,497.79 384,491.5C 387.7,495.535 391.7,499.202 396,502.5C 396.399,502.272 396.565,501.938 396.5,501.5C 400.868,504.531 405.535,507.365 410.5,510C 412.401,512.613 414.735,514.28 417.5,515C 418.022,514.439 418.355,513.772 418.5,513C 410.284,501.034 404.784,487.867 402,473.5C 395.836,466.174 391.503,457.84 389,448.5C 379.186,405.282 371.853,361.616 367,317.5C 361.718,291.425 347.884,271.259 325.5,257C 307.5,248 289.5,239 271.5,230C 267.78,228.608 265.78,229.775 265.5,233.5C 263.351,232.252 261.351,230.752 259.5,229C 257.19,228.503 254.857,228.337 252.5,228.5C 252.551,234.034 253.551,239.367 255.5,244.5C 251.979,242.898 248.979,240.565 246.5,237.5C 244.777,239.947 244.277,242.613 245,245.5C 252.113,254.775 258.613,264.442 264.5,274.5C 235.572,268.816 230.238,254.483 248.5,231.5C 241.977,223.627 236.644,214.96 232.5,205.5C 230.146,204.177 228.479,204.843 227.5,207.5C 161.433,172.955 102.599,128.621 51,74.5C 56.9001,92.639 64.7334,109.972 74.5,126.5C 76.8882,132.273 80.0548,137.607 84,142.5C 88.5,147 93,151.5 97.5,156C 90.8333,156.333 84.1667,156.667 77.5,157C 82.8628,175.908 92.1961,192.408 105.5,206.5C 106.401,207.29 107.068,208.29 107.5,209.5C 107.827,211.488 108.16,213.488 108.5,215.5C 108.563,217.481 107.896,219.148 106.5,220.5C 99.2291,214.946 91.3958,210.279 83,206.5C 82.2352,206.57 81.7352,206.903 81.5,207.5C 78.2088,204.319 74.2088,202.486 69.5,202C 67.4701,200.104 65.8034,197.937 64.5,195.5C 55.7244,189.611 46.391,185.111 36.5,182C 56.8333,211.169 80.8333,237.003 108.5,259.5C 107.535,260.721 107.702,262.054 109,263.5C 111.408,265.956 114.241,267.789 117.5,269C 114.74,270.179 112.74,272.012 111.5,274.5C 106.604,276.62 106.271,279.453 110.5,283C 104.16,287.012 97.4936,287.512 90.5,284.5C 89.1667,284.833 87.8333,285.167 86.5,285.5C 100.89,298.898 116.89,309.898 134.5,318.5C 134.062,318.435 133.728,318.601 133.5,319C 135.211,320.133 135.711,321.633 135,323.5C 132.808,325.235 130.308,326.402 127.5,327C 131.029,329.06 134.363,331.227 137.5,333.5C 131.011,336.573 124.345,339.406 117.5,342C 113.853,342.774 110.186,343.441 106.5,344C 119.729,352.111 133.062,359.944 146.5,367.5C 153.301,372.74 160.634,377.24 168.5,381C 157.477,382.589 146.81,385.422 136.5,389.5C 136.709,390.086 137.043,390.586 137.5,391C 139.473,391.495 141.473,391.662 143.5,391.5C 143.489,393.017 142.823,394.184 141.5,395C 139.668,395.748 138.001,396.748 136.5,398C 150.66,407.385 166.327,412.385 183.5,413C 184.357,413.689 185.023,414.522 185.5,415.5C 193.807,416.498 202.14,416.831 210.5,416.5C 203.679,417.329 196.679,417.829 189.5,418C 198.586,420.871 207.92,422.537 217.5,423C 206.579,423.881 196.246,426.714 186.5,431.5C 187.325,432.386 188.325,432.719 189.5,432.5C 181.761,436.534 173.761,440.2 165.5,443.5C 168.804,445.14 171.471,447.473 173.5,450.5C 176.578,455.882 181.245,459.049 187.5,460C 208.701,460.72 229.701,462.887 250.5,466.5C 235.969,471.734 221.302,476.901 206.5,482C 201.062,482.931 198.395,486.098 198.5,491.5C 198.5,492.833 198.5,494.167 198.5,495.5C 191.827,497.152 188.827,501.486 189.5,508.5C 178.79,504.396 169.29,498.396 161,490.5C 162.019,483.313 165.519,477.48 171.5,473C 164.091,471.045 157.258,467.878 151,463.5C 150.667,464.5 150.333,465.5 150,466.5C 147.958,464.396 145.458,463.229 142.5,463C 133.629,455.796 125.795,447.629 119,438.5C 119.768,436.156 120.935,433.823 122.5,431.5C 121.352,429.851 120.019,428.351 118.5,427C 122.74,426.884 126.907,427.384 131,428.5C 132.205,427.929 133.372,427.262 134.5,426.5C 129.012,420.525 122.345,416.358 114.5,414C 104.015,407.351 100.348,398.184 103.5,386.5C 109.27,387.558 114.937,387.058 120.5,385C 97.0354,375.193 79.8687,359.027 69,336.5C 72.6767,331.411 77.51,327.911 83.5,326C 69.6667,314.833 57.1667,302.333 46,288.5C 39.8071,279.088 36.3071,268.755 35.5,257.5C 43.1428,258.574 50.8094,259.074 58.5,259C 21.3018,227.437 1.63514,187.27 -0.5,138.5C -0.5,135.167 -0.5,131.833 -0.5,128.5C 1.13761,127.343 2.80428,126.176 4.5,125C 5.89888,124.405 7.23221,124.572 8.5,125.5C 16.8525,133.02 25.3525,140.354 34,147.5C 33.6521,142.765 32.6521,138.099 31,133.5C 6.96543,91.4219 0.132095,46.7553 10.5,-0.5 Z M 686.5,329.5 C 700.405,329.399 705.738,336.066 702.5,349.5C 682.979,354.492 677.645,347.826 686.5,329.5 Z M 1064.5,332.5 C 1062.5,332.5 1060.5,332.5 1058.5,332.5C 1059.69,330.025 1061.69,329.025 1064.5,329.5C 1064.5,330.5 1064.5,331.5 1064.5,332.5 Z M 573.5,350.5 C 581.302,352.555 582.302,356.222 576.5,361.5C 569.947,359.188 568.947,355.522 573.5,350.5 Z M 444.5,388.5 C 450.04,388.138 451.374,390.138 448.5,394.5C 446.167,393.168 444.834,391.168 444.5,388.5 Z M 464.5,405.5 C 470.532,417.431 474.699,430.098 477,443.5C 477.89,451.518 478.89,459.518 480,467.5C 487.469,475.97 495.302,484.137 503.5,492C 514.063,502.067 524.729,511.901 535.5,521.5C 535.5,591.833 535.5,662.167 535.5,732.5C 531.833,732.5 528.167,732.5 524.5,732.5C 526.316,693.853 526.816,655.186 526,616.5C 525.464,593.721 523.798,571.054 521,548.5C 499.257,528.092 478.924,506.426 460,483.5C 458.894,478.231 458.227,472.897 458,467.5C 457.333,452.833 457.333,438.167 458,423.5C 458.227,418.103 458.894,412.769 460,407.5C 461.33,406.418 462.83,405.751 464.5,405.5 Z M 482.5,408.5 C 484.868,409.014 486.868,410.18 488.5,412C 487.792,414.768 486.292,415.601 484,414.5C 482.872,412.655 482.372,410.655 482.5,408.5 Z M 451.5,599.5 C 450.833,599.5 450.167,599.5 449.5,599.5C 450.167,596.833 450.833,596.833 451.5,599.5 Z"/></g>
<g><path style="opacity:1" fill="#ebecec" d="M 227.5,207.5 C 228.469,217.903 226.969,227.903 223,237.5C 169.384,206.057 119.884,169.057 74.5,126.5C 64.7334,109.972 56.9001,92.639 51,74.5C 102.599,128.621 161.433,172.955 227.5,207.5 Z"/></g>
<g><path style="opacity:1" fill="#eceded" d="M 1080.5,122.5 C 1037.99,168.414 988.658,205.08 932.5,232.5C 930.265,229.983 928.765,226.983 928,223.5C 927.219,218.083 927.385,212.75 928.5,207.5C 991.987,171.975 1049.49,128.308 1101,76.5C 1096.03,92.5631 1089.19,107.896 1080.5,122.5 Z"/></g>
<g><path style="opacity:0.035" fill="#0f1e21" d="M 889.5,113.5 C 893.131,113.16 896.464,113.994 899.5,116C 907,124.833 914.5,133.667 922,142.5C 924.078,147.163 922.912,150.997 918.5,154C 916.613,154.163 915.113,153.329 914,151.5C 905.068,139.398 895.568,127.731 885.5,116.5C 886.901,115.479 888.235,114.479 889.5,113.5 Z"/></g>
<g><path style="opacity:1" fill="#031928" d="M 1080.5,122.5 C 1074.93,132.623 1068.6,142.289 1061.5,151.5C 1063.53,152.832 1065.53,154.166 1067.5,155.5C 1027.63,193.957 982.63,225.29 932.5,249.5C 925.877,255.507 924.377,262.507 928,270.5C 961.57,255.618 994.737,239.785 1027.5,223C 1042.97,206.702 1056.31,188.869 1067.5,169.5C 1066.41,177.392 1063.24,184.725 1058,191.5C 1057.25,192.635 1057.42,193.635 1058.5,194.5C 1062.46,197.122 1066.12,200.122 1069.5,203.5C 1076.11,197.849 1083.44,194.515 1091.5,193.5C 1043.69,232.354 990.692,262.854 932.5,285C 929.23,290.87 925.23,296.203 920.5,301C 988.39,294.306 1044.89,265.473 1090,214.5C 1097.03,205.313 1104.2,196.313 1111.5,187.5C 1113.25,187.418 1114.25,188.251 1114.5,190C 1111.29,194.91 1108.46,200.077 1106,205.5C 1089.65,223.017 1073.48,240.683 1057.5,258.5C 1069.33,269.946 1083,272.613 1098.5,266.5C 1102.32,267.981 1104.65,270.647 1105.5,274.5C 1102.08,274.974 1098.75,274.974 1095.5,274.5C 1093.66,290.014 1090.49,290.347 1086,275.5C 1072.88,291.292 1057.38,304.125 1039.5,314C 1036.17,314.667 1032.83,314.667 1029.5,314C 1028.94,313.617 1028.61,313.117 1028.5,312.5C 1042.5,304.501 1055.83,295.501 1068.5,285.5C 1060.71,282.677 1053.04,283.01 1045.5,286.5C 1043.58,282.577 1041.74,278.577 1040,274.5C 1005.33,294.837 968.164,308.67 928.5,316C 928.085,323.665 925.085,330.165 919.5,335.5C 920.005,336.919 921.005,337.585 922.5,337.5C 920.881,339.238 918.881,339.738 916.5,339C 915.206,336.913 914.039,334.746 913,332.5C 912.127,336.525 909.961,339.525 906.5,341.5C 896.7,342.027 887.034,341.194 877.5,339C 876.619,338.292 875.953,337.458 875.5,336.5C 888.327,332.073 898.661,324.239 906.5,313C 896.76,312.599 887.093,311.599 877.5,310C 885.244,305.591 891.744,299.758 897,292.5C 897.426,287.412 894.926,285.079 889.5,285.5C 884.833,284.833 880.167,284.167 875.5,283.5C 890.575,271.099 902.242,256.099 910.5,238.5C 915.554,231.058 919.554,223.058 922.5,214.5C 922.785,222.089 924.285,229.423 927,236.5C 929.902,237.149 931.735,235.816 932.5,232.5C 988.658,205.08 1037.99,168.414 1080.5,122.5 Z"/></g>
<g><path style="opacity:1" fill="#e9ebeb" d="M 1067.5,169.5 C 1056.31,188.869 1042.97,206.702 1027.5,223C 994.737,239.785 961.57,255.618 928,270.5C 924.377,262.507 925.877,255.507 932.5,249.5C 982.63,225.29 1027.63,193.957 1067.5,155.5C 1071,154.483 1072.67,155.983 1072.5,160C 1071.76,163.637 1070.1,166.803 1067.5,169.5 Z"/></g>
<g><path style="opacity:0.032" fill="#0f1e21" d="M 214.5,175.5 C 212.847,175.34 211.514,174.674 210.5,173.5C 214.089,165.705 220.089,162.705 228.5,164.5C 225.567,170.439 220.9,174.106 214.5,175.5 Z"/></g>
<g><path style="opacity:0.023" fill="#111b21" d="M 936.5,175.5 C 932.541,173.927 930.875,170.927 931.5,166.5C 939.802,166.115 941.468,169.115 936.5,175.5 Z"/></g>
<g><path style="opacity:1" fill="#e9ebec" d="M 1111.5,187.5 C 1104.2,196.313 1097.03,205.313 1090,214.5C 1044.89,265.473 988.39,294.306 920.5,301C 925.23,296.203 929.23,290.87 932.5,285C 990.692,262.854 1043.69,232.354 1091.5,193.5C 1097.85,188.65 1104.35,183.983 1111,179.5C 1112.83,180 1114,181.167 1114.5,183C 1113.69,184.643 1112.69,186.143 1111.5,187.5 Z"/></g>
<g><path style="opacity:1" fill="#e7e9e9" d="M 81.5,207.5 C 122.549,240.705 168.216,266.205 218.5,284C 223.939,287.895 227.939,292.895 230.5,299C 230.561,300.711 229.894,302.044 228.5,303C 219.651,302.625 210.985,300.958 202.5,298C 169.838,288.175 138.505,275.341 108.5,259.5C 80.8333,237.003 56.8333,211.169 36.5,182C 46.391,185.111 55.7244,189.611 64.5,195.5C 65.8034,197.937 67.4701,200.104 69.5,202C 74.2088,202.486 78.2088,204.319 81.5,207.5 Z"/></g>
<g><path style="opacity:1" fill="#6a737b" d="M 928.5,207.5 C 927.385,212.75 927.219,218.083 928,223.5C 928.765,226.983 930.265,229.983 932.5,232.5C 931.735,235.816 929.902,237.149 927,236.5C 924.285,229.423 922.785,222.089 922.5,214.5C 921.505,209.458 923.505,207.125 928.5,207.5 Z"/></g>
<g><path style="opacity:1" fill="#041424" d="M 74.5,126.5 C 119.884,169.057 169.384,206.057 223,237.5C 226.969,227.903 228.469,217.903 227.5,207.5C 228.479,204.843 230.146,204.177 232.5,205.5C 236.644,214.96 241.977,223.627 248.5,231.5C 230.238,254.483 235.572,268.816 264.5,274.5C 270.405,277.46 276.071,280.96 281.5,285C 271.739,285.143 262.073,286.143 252.5,288C 256.693,294.692 262.027,300.192 268.5,304.5C 264.103,307.849 259.103,309.183 253.5,308.5C 247,307.499 244.5,310.165 246,316.5C 256.39,325.618 267.89,333.118 280.5,339C 268.518,340.739 256.518,342.406 244.5,344C 258.196,357.338 274.196,367.005 292.5,373C 281.55,376.155 270.55,378.821 259.5,381C 258.833,381.667 258.167,382.333 257.5,383C 262.547,386.38 266.547,390.714 269.5,396C 292.349,402.709 314.015,400.043 334.5,388C 313.435,381.718 303.268,367.551 304,345.5C 291.685,331.093 287.352,314.426 291,295.5C 292.237,288.397 293.571,281.397 295,274.5C 282.214,263.873 269.047,253.873 255.5,244.5C 253.551,239.367 252.551,234.034 252.5,228.5C 254.857,228.337 257.19,228.503 259.5,229C 261.351,230.752 263.351,232.252 265.5,233.5C 292.864,251.68 318.364,272.347 342,295.5C 343.654,368.631 361.821,437.297 396.5,501.5C 396.565,501.938 396.399,502.272 396,502.5C 391.7,499.202 387.7,495.535 384,491.5C 378.551,497.79 372.385,503.124 365.5,507.5C 358.059,508.991 350.725,508.491 343.5,506C 345.708,505.809 347.708,505.309 349.5,504.5C 359.512,503.828 367.512,499.495 373.5,491.5C 368.413,479.582 360.08,476.582 348.5,482.5C 332.819,480.718 318.486,475.385 305.5,466.5C 303.63,469.573 301.297,472.239 298.5,474.5C 283.387,466.544 267.387,463.878 250.5,466.5C 229.701,462.887 208.701,460.72 187.5,460C 181.245,459.049 176.578,455.882 173.5,450.5C 204.941,458.841 236.608,459.674 268.5,453C 274.371,451.727 280.038,449.894 285.5,447.5C 283.703,445.869 282.536,443.869 282,441.5C 273.258,434.294 263.591,428.628 253,424.5C 231.95,428.122 210.783,430.788 189.5,432.5C 188.325,432.719 187.325,432.386 186.5,431.5C 196.246,426.714 206.579,423.881 217.5,423C 207.92,422.537 198.586,420.871 189.5,418C 196.679,417.829 203.679,417.329 210.5,416.5C 228.406,415.974 246.072,413.807 263.5,410C 253.201,407.368 245.534,401.368 240.5,392C 208.185,386.235 175.851,386.069 143.5,391.5C 141.473,391.662 139.473,391.495 137.5,391C 137.043,390.586 136.709,390.086 136.5,389.5C 146.81,385.422 157.477,382.589 168.5,381C 160.634,377.24 153.301,372.74 146.5,367.5C 178.222,374.564 210.222,376.231 242.5,372.5C 233.356,367.683 227.023,360.35 223.5,350.5C 194.062,348.412 165.396,342.746 137.5,333.5C 134.363,331.227 131.029,329.06 127.5,327C 130.308,326.402 132.808,325.235 135,323.5C 135.711,321.633 135.211,320.133 133.5,319C 133.728,318.601 134.062,318.435 134.5,318.5C 167.057,330.913 200.724,336.246 235.5,334.5C 231.354,328.52 226.354,323.354 220.5,319C 182.152,308.944 145.818,294.11 111.5,274.5C 112.74,272.012 114.74,270.179 117.5,269C 114.241,267.789 111.408,265.956 109,263.5C 107.702,262.054 107.535,260.721 108.5,259.5C 138.505,275.341 169.838,288.175 202.5,298C 210.985,300.958 219.651,302.625 228.5,303C 229.894,302.044 230.561,300.711 230.5,299C 227.939,292.895 223.939,287.895 218.5,284C 168.216,266.205 122.549,240.705 81.5,207.5C 81.7352,206.903 82.2352,206.57 83,206.5C 91.3958,210.279 99.2291,214.946 106.5,220.5C 107.896,219.148 108.563,217.481 108.5,215.5C 108.16,213.488 107.827,211.488 107.5,209.5C 143.04,233.275 180.707,253.442 220.5,270C 223.383,270.795 224.883,269.629 225,266.5C 226.001,259.503 223.834,253.67 218.5,249C 172.313,224.286 128.979,195.453 88.5,162.5C 88.1667,162.667 87.8333,162.833 87.5,163C 94.1853,177.224 100.185,191.724 105.5,206.5C 92.1961,192.408 82.8628,175.908 77.5,157C 84.1667,156.667 90.8333,156.333 97.5,156C 93,151.5 88.5,147 84,142.5C 80.0548,137.607 76.8882,132.273 74.5,126.5 Z"/></g>
<g><path style="opacity:1" fill="#e9e9ea" d="M 107.5,209.5 C 107.068,208.29 106.401,207.29 105.5,206.5C 100.185,191.724 94.1853,177.224 87.5,163C 87.8333,162.833 88.1667,162.667 88.5,162.5C 128.979,195.453 172.313,224.286 218.5,249C 223.834,253.67 226.001,259.503 225,266.5C 224.883,269.629 223.383,270.795 220.5,270C 180.707,253.442 143.04,233.275 107.5,209.5 Z"/></g>
<g><path style="opacity:1" fill="#e1e4e5" d="M 396.5,501.5 C 361.821,437.297 343.654,368.631 342,295.5C 318.364,272.347 292.864,251.68 265.5,233.5C 265.78,229.775 267.78,228.608 271.5,230C 289.5,239 307.5,248 325.5,257C 347.884,271.259 361.718,291.425 367,317.5C 371.853,361.616 379.186,405.282 389,448.5C 391.503,457.84 395.836,466.174 402,473.5C 404.784,487.867 410.284,501.034 418.5,513C 418.355,513.772 418.022,514.439 417.5,515C 414.735,514.28 412.401,512.613 410.5,510C 405.535,507.365 400.868,504.531 396.5,501.5 Z"/></g>
<g><path style="opacity:1" fill="#071624" d="M 906.5,237.5 C 889.747,251.407 872.247,264.407 854,276.5C 856.152,281.947 858.152,287.613 860,293.5C 860.667,300.167 860.667,306.833 860,313.5C 855.962,331.65 851.296,349.65 846,367.5C 837.42,376.543 827.253,383.21 815.5,387.5C 820.32,391.746 825.653,395.246 831.5,398C 851.435,400.738 870.769,398.571 889.5,391.5C 886.026,396.131 881.693,399.964 876.5,403C 871.535,405.208 866.535,407.208 861.5,409C 864.739,410.736 867.073,413.236 868.5,416.5C 848.031,415.174 828.864,409.508 811,399.5C 809.303,401.699 807.803,404.032 806.5,406.5C 809.31,411.144 812.977,414.977 817.5,418C 812.118,419.524 807.118,421.858 802.5,425C 808.354,429.364 814.021,433.864 819.5,438.5C 817.929,440.635 816.596,442.968 815.5,445.5C 810.745,445.627 806.412,444.294 802.5,441.5C 798.975,445.19 798.641,449.19 801.5,453.5C 800.221,455.146 798.555,456.313 796.5,457C 789.532,461.759 789.865,465.759 797.5,469C 808.895,471.149 820.229,470.816 831.5,468C 835.869,466.733 839.703,464.567 843,461.5C 843.667,460.167 843.667,458.833 843,457.5C 841.624,456.295 840.458,454.962 839.5,453.5C 845.192,452.769 850.525,450.936 855.5,448C 853.167,446.5 850.833,445 848.5,443.5C 855.38,440.943 862.38,440.276 869.5,441.5C 868.559,443.466 867.559,445.466 866.5,447.5C 885.682,454.218 905.515,457.552 926,457.5C 939.553,457.079 953.053,456.079 966.5,454.5C 968.527,454.338 970.527,454.505 972.5,455C 970.695,457.403 968.362,459.07 965.5,460C 945.793,461.027 926.126,462.527 906.5,464.5C 921.712,467.448 935.712,473.115 948.5,481.5C 924.915,474.72 900.915,469.72 876.5,466.5C 867.021,467.072 859.355,471.072 853.5,478.5C 867.212,487.24 882.212,492.74 898.5,495C 915.679,497.43 932.679,496.597 949.5,492.5C 950.738,492.81 950.738,493.31 949.5,494C 943.883,497.317 937.883,499.65 931.5,501C 917.491,502.594 903.491,504.26 889.5,506C 892.333,508.833 895.167,511.667 898,514.5C 898.692,515.437 898.525,516.103 897.5,516.5C 882.001,507.085 865.668,499.252 848.5,493C 843.167,492.333 837.833,492.333 832.5,493C 832.167,493.333 831.833,493.667 831.5,494C 835.728,497.274 839.728,500.774 843.5,504.5C 840.278,508.164 839.778,512.164 842,516.5C 849.538,519.84 856.038,524.507 861.5,530.5C 857.369,530.346 853.035,530.679 848.5,531.5C 855.374,536.372 860.374,542.705 863.5,550.5C 863.376,551.107 863.043,551.44 862.5,551.5C 852.404,543.122 842.737,534.288 833.5,525C 825.278,520.935 816.611,519.601 807.5,521C 805.545,521.953 803.878,523.287 802.5,525C 812.043,535.705 821.376,546.539 830.5,557.5C 824.893,557.53 820.56,555.197 817.5,550.5C 816.301,556.508 816.301,562.508 817.5,568.5C 811.422,562.533 806.422,555.7 802.5,548C 789.977,546.728 777.644,544.561 765.5,541.5C 765.84,539.321 766.84,537.488 768.5,536C 760.978,534.02 753.312,532.354 745.5,531C 748.597,529.727 751.264,527.893 753.5,525.5C 762.671,528.085 771.837,530.752 781,533.5C 784.227,532.136 787.394,530.636 790.5,529C 785.24,521.737 779.24,515.07 772.5,509C 766.837,509.495 761.837,511.662 757.5,515.5C 752.145,512.923 746.812,512.923 741.5,515.5C 746.356,508.133 752.19,501.466 759,495.5C 791.055,431.285 809.055,363.285 813,291.5C 837.667,268.653 864.167,248.319 892.5,230.5C 898.376,229.965 903.043,232.299 906.5,237.5 Z"/></g>
<g><path style="opacity:1" fill="#e4e8e8" d="M 892.5,230.5 C 864.167,248.319 837.667,268.653 813,291.5C 809.055,363.285 791.055,431.285 759,495.5C 752.19,501.466 746.356,508.133 741.5,515.5C 738.946,516.388 736.279,516.721 733.5,516.5C 732.522,516.189 731.855,515.522 731.5,514.5C 765.785,454.8 783.285,390.466 784,321.5C 786.81,309.735 790.81,298.402 796,287.5C 821.213,258.133 852.713,238.8 890.5,229.5C 891.416,229.543 892.083,229.876 892.5,230.5 Z"/></g>
<g><path style="opacity:1" fill="#e7eaea" d="M 906.5,237.5 C 908.099,237.232 909.432,237.566 910.5,238.5C 902.242,256.099 890.575,271.099 875.5,283.5C 874.711,283.783 874.044,284.283 873.5,285C 878.823,285.499 884.156,285.666 889.5,285.5C 894.926,285.079 897.426,287.412 897,292.5C 891.744,299.758 885.244,305.591 877.5,310C 887.093,311.599 896.76,312.599 906.5,313C 898.661,324.239 888.327,332.073 875.5,336.5C 871.371,337.4 868.038,339.567 865.5,343C 871.978,344.649 878.644,345.649 885.5,346C 891.175,346.765 896.509,348.265 901.5,350.5C 887.167,359.671 872.167,367.837 856.5,375C 868.263,377.286 879.93,379.952 891.5,383C 892.308,383.308 892.975,383.808 893.5,384.5C 892.392,387.059 891.059,389.392 889.5,391.5C 870.769,398.571 851.435,400.738 831.5,398C 825.653,395.246 820.32,391.746 815.5,387.5C 827.253,383.21 837.42,376.543 846,367.5C 851.296,349.65 855.962,331.65 860,313.5C 860.667,306.833 860.667,300.167 860,293.5C 858.152,287.613 856.152,281.947 854,276.5C 872.247,264.407 889.747,251.407 906.5,237.5 Z"/></g>
<g><path style="opacity:1" fill="#e2e5e5" d="M 255.5,244.5 C 269.047,253.873 282.214,263.873 295,274.5C 293.571,281.397 292.237,288.397 291,295.5C 287.352,314.426 291.685,331.093 304,345.5C 303.268,367.551 313.435,381.718 334.5,388C 314.015,400.043 292.349,402.709 269.5,396C 266.547,390.714 262.547,386.38 257.5,383C 258.167,382.333 258.833,381.667 259.5,381C 270.55,378.821 281.55,376.155 292.5,373C 274.196,367.005 258.196,357.338 244.5,344C 256.518,342.406 268.518,340.739 280.5,339C 267.89,333.118 256.39,325.618 246,316.5C 244.5,310.165 247,307.499 253.5,308.5C 261.103,313.234 269.103,313.734 277.5,310C 275.359,306.68 272.359,304.846 268.5,304.5C 262.027,300.192 256.693,294.692 252.5,288C 262.073,286.143 271.739,285.143 281.5,285C 276.071,280.96 270.405,277.46 264.5,274.5C 258.613,264.442 252.113,254.775 245,245.5C 244.277,242.613 244.777,239.947 246.5,237.5C 248.979,240.565 251.979,242.898 255.5,244.5 Z"/></g>
<g><path style="opacity:0.951" fill="#001e2f" d="M 606.5,522.5 C 603.08,594.124 601.747,665.791 602.5,737.5C 595.5,737.5 588.5,737.5 581.5,737.5C 579.983,663.827 578.149,590.161 576,516.5C 574.746,538.468 574.079,560.468 574,582.5C 573.5,634.166 573.333,685.832 573.5,737.5C 566.861,736.778 560.694,738.111 555,741.5C 551.729,738.553 549.729,734.887 549,730.5C 551.536,660.37 553.036,590.37 553.5,520.5C 555.745,590.528 558.578,660.528 562,730.5C 565.857,725.095 568.024,719.095 568.5,712.5C 566.229,677.371 564.896,642.204 564.5,607C 565.163,570.465 566.33,533.965 568,497.5C 547.114,474.284 526.614,450.784 506.5,427C 508.718,422.244 510.052,417.244 510.5,412C 507.4,378.897 505.233,345.73 504,312.5C 490.04,294.554 491.54,278.054 508.5,263C 537.21,260.725 548.71,273.892 543,302.5C 541.026,307.141 537.692,310.474 533,312.5C 528.574,345.058 527.574,377.724 530,410.5C 530.962,419.273 532.462,427.94 534.5,436.5C 547.144,444.644 557.644,454.978 566,467.5C 567.399,436.376 566.066,405.376 562,374.5C 546.253,352.242 551.419,336.909 577.5,328.5C 586.188,331.418 593.354,336.418 599,343.5C 602.698,356.074 599.364,366.408 589,374.5C 585.693,405.85 585.693,437.184 589,468.5C 598.642,459.19 607.975,449.524 617,439.5C 618.057,436.793 618.557,433.96 618.5,431C 615.978,387.145 613.144,343.312 610,299.5C 599.226,290.627 594.56,279.293 596,265.5C 601.603,253.236 610.936,245.236 624,241.5C 649.926,246.667 658.926,262.001 651,287.5C 645.667,292.833 640.333,298.167 635,303.5C 634.667,305.5 634.333,307.5 634,309.5C 631.611,354.583 632.277,399.583 636,444.5C 633.603,447.4 630.77,449.733 627.5,451.5C 616.658,467.846 603.825,482.513 589,495.5C 586.791,574.481 585.958,653.481 586.5,732.5C 590.167,732.5 593.833,732.5 597.5,732.5C 596.027,679.446 597.194,626.446 601,573.5C 602.187,556.282 604.021,539.282 606.5,522.5 Z M 573.5,350.5 C 568.947,355.522 569.947,359.188 576.5,361.5C 582.302,356.222 581.302,352.555 573.5,350.5 Z"/></g>
<g><path style="opacity:1" fill="#e5e8e8" d="M 111.5,274.5 C 145.818,294.11 182.152,308.944 220.5,319C 226.354,323.354 231.354,328.52 235.5,334.5C 200.724,336.246 167.057,330.913 134.5,318.5C 116.89,309.898 100.89,298.898 86.5,285.5C 87.8333,285.167 89.1667,284.833 90.5,284.5C 97.4936,287.512 104.16,287.012 110.5,283C 106.271,279.453 106.604,276.62 111.5,274.5 Z"/></g>
<g><path style="opacity:1" fill="#e7e9e9" d="M 1028.5,312.5 C 1013.98,315.104 1000.64,320.437 988.5,328.5C 966.478,331.336 944.478,334.336 922.5,337.5C 921.005,337.585 920.005,336.919 919.5,335.5C 925.085,330.165 928.085,323.665 928.5,316C 968.164,308.67 1005.33,294.837 1040,274.5C 1041.74,278.577 1043.58,282.577 1045.5,286.5C 1053.04,283.01 1060.71,282.677 1068.5,285.5C 1055.83,295.501 1042.5,304.501 1028.5,312.5 Z"/></g>
<g><path style="opacity:1" fill="#6c7780" d="M 875.5,283.5 C 880.167,284.167 884.833,284.833 889.5,285.5C 884.156,285.666 878.823,285.499 873.5,285C 874.044,284.283 874.711,283.783 875.5,283.5 Z"/></g>
<g><path style="opacity:1" fill="#d9dcde" d="M 306.5,287.5 C 321.131,289.61 326.798,297.776 323.5,312C 305.561,312.28 299.894,304.113 306.5,287.5 Z"/></g>
<g><path style="opacity:1" fill="#e2e6e6" d="M 835.5,287.5 C 842.949,288.78 847.116,293.114 848,300.5C 841.374,305.898 833.874,309.232 825.5,310.5C 825.337,308.143 825.503,305.81 826,303.5C 828.926,297.974 832.093,292.641 835.5,287.5 Z"/></g>
<g><path style="opacity:1" fill="#566469" d="M 268.5,304.5 C 272.359,304.846 275.359,306.68 277.5,310C 269.103,313.734 261.103,313.234 253.5,308.5C 259.103,309.183 264.103,307.849 268.5,304.5 Z"/></g>
<g><path style="opacity:0.951" fill="#001e30" d="M 615.5,731.5 C 609.202,664.526 608.869,597.359 614.5,530C 615.614,523.616 612.947,520.449 606.5,520.5C 631.197,494.637 655.364,468.303 679,441.5C 685.493,409.308 680.16,379.308 663,351.5C 659.963,329.217 669.129,314.717 690.5,308C 711.939,310.267 724.605,322.101 728.5,343.5C 725.586,355.396 718.92,364.396 708.5,370.5C 707.749,371.376 707.249,372.376 707,373.5C 703.627,397.72 701.627,422.053 701,446.5C 674.793,476.712 647.126,505.712 618,533.5C 615.865,599.481 615.031,665.481 615.5,731.5 Z M 686.5,329.5 C 677.645,347.826 682.979,354.492 702.5,349.5C 705.738,336.066 700.405,329.399 686.5,329.5 Z"/></g>
<g><path style="opacity:1" fill="#d2d6d9" d="M 837.5,316.5 C 848.57,317.733 850.237,322.233 842.5,330C 834.513,334.96 826.847,334.626 819.5,329C 824.695,323.578 830.695,319.411 837.5,316.5 Z"/></g>
<g><path style="opacity:1" fill="#e3e7ea" d="M 306.5,316.5 C 316.185,318.009 324.518,322.176 331.5,329C 317.59,336.045 309.257,331.878 306.5,316.5 Z"/></g>
<g><path style="opacity:0.999" fill="#021424" d="M 988.5,328.5 C 993.333,328.375 998,329.208 1002.5,331C 996.869,332.133 992.869,335.3 990.5,340.5C 990.389,341.117 990.056,341.617 989.5,342C 968.766,344.9 948.099,348.233 927.5,352C 920.652,358.681 913.985,365.514 907.5,372.5C 958.095,380.515 1004.76,370.515 1047.5,342.5C 1051.86,339.798 1055.53,336.464 1058.5,332.5C 1060.5,332.5 1062.5,332.5 1064.5,332.5C 1064.5,337.167 1064.5,341.833 1064.5,346.5C 1036.65,358.59 1008.65,370.424 980.5,382C 979.167,382.667 977.833,382.667 976.5,382C 974.119,380.234 971.452,379.068 968.5,378.5C 964.312,379.541 961.979,382.208 961.5,386.5C 960.5,386.5 959.5,386.5 958.5,386.5C 931.591,382.524 908.924,390.357 890.5,410C 913.129,415.533 936.129,418.033 959.5,417.5C 937.53,421.353 915.53,425.02 893.5,428.5C 890.753,428.187 888.086,428.52 885.5,429.5C 882.185,436.144 876.851,440.144 869.5,441.5C 862.38,440.276 855.38,440.943 848.5,443.5C 850.833,445 853.167,446.5 855.5,448C 850.525,450.936 845.192,452.769 839.5,453.5C 830.595,453.28 822.595,450.614 815.5,445.5C 816.596,442.968 817.929,440.635 819.5,438.5C 840.924,441.945 857.59,434.779 869.5,417C 869.272,416.601 868.938,416.435 868.5,416.5C 867.073,413.236 864.739,410.736 861.5,409C 866.535,407.208 871.535,405.208 876.5,403C 881.693,399.964 886.026,396.131 889.5,391.5C 891.059,389.392 892.392,387.059 893.5,384.5C 892.975,383.808 892.308,383.308 891.5,383C 879.93,379.952 868.263,377.286 856.5,375C 872.167,367.837 887.167,359.671 901.5,350.5C 905.473,348.897 907.139,345.897 906.5,341.5C 909.961,339.525 912.127,336.525 913,332.5C 914.039,334.746 915.206,336.913 916.5,339C 918.881,339.738 920.881,339.238 922.5,337.5C 944.478,334.336 966.478,331.336 988.5,328.5 Z"/></g>
<g><path style="opacity:1" fill="#e2e6e7" d="M 1047.5,342.5 C 1004.76,370.515 958.095,380.515 907.5,372.5C 913.985,365.514 920.652,358.681 927.5,352C 948.099,348.233 968.766,344.9 989.5,342C 990.056,341.617 990.389,341.117 990.5,340.5C 1000.58,337.549 1010.41,333.882 1020,329.5C 1021.65,329.82 1022.65,330.82 1023,332.5C 1023.5,335.482 1023.66,338.482 1023.5,341.5C 1031.68,341.174 1039.68,341.508 1047.5,342.5 Z"/></g>
<g><path style="opacity:1" fill="#e7ebeb" d="M 137.5,333.5 C 165.396,342.746 194.062,348.412 223.5,350.5C 227.023,360.35 233.356,367.683 242.5,372.5C 210.222,376.231 178.222,374.564 146.5,367.5C 133.062,359.944 119.729,352.111 106.5,344C 110.186,343.441 113.853,342.774 117.5,342C 124.345,339.406 131.011,336.573 137.5,333.5 Z"/></g>
<g><path style="opacity:1" fill="#627178" d="M 875.5,336.5 C 875.953,337.458 876.619,338.292 877.5,339C 887.034,341.194 896.7,342.027 906.5,341.5C 907.139,345.897 905.473,348.897 901.5,350.5C 896.509,348.265 891.175,346.765 885.5,346C 878.644,345.649 871.978,344.649 865.5,343C 868.038,339.567 871.371,337.4 875.5,336.5 Z"/></g>
<g><path style="opacity:1" fill="#e1e4e6" d="M 335.5,366.5 C 331.363,366.854 327.363,366.354 323.5,365C 320.976,363.117 319.642,360.617 319.5,357.5C 319.5,355.167 319.5,352.833 319.5,350.5C 324.833,350.5 330.167,350.5 335.5,350.5C 335.5,355.833 335.5,361.167 335.5,366.5 Z"/></g>
<g><path style="opacity:1" fill="#858d94" d="M 335.5,366.5 C 335.5,361.167 335.5,355.833 335.5,350.5C 330.167,350.5 324.833,350.5 319.5,350.5C 319.5,352.833 319.5,355.167 319.5,357.5C 318.527,355.052 318.194,352.385 318.5,349.5C 324.5,349.5 330.5,349.5 336.5,349.5C 336.822,355.358 336.489,361.025 335.5,366.5 Z"/></g>
<g><path style="opacity:1" fill="#858c92" d="M 831.5,357.5 C 831.5,355.167 831.5,352.833 831.5,350.5C 826.167,350.5 820.833,350.5 815.5,350.5C 815.5,355.833 815.5,361.167 815.5,366.5C 814.511,361.025 814.178,355.358 814.5,349.5C 820.5,349.5 826.5,349.5 832.5,349.5C 832.806,352.385 832.473,355.052 831.5,357.5 Z"/></g>
<g><path style="opacity:1" fill="#dfe2e5" d="M 831.5,357.5 C 831.358,360.617 830.024,363.117 827.5,365C 823.605,366.266 819.605,366.766 815.5,366.5C 815.5,361.167 815.5,355.833 815.5,350.5C 820.833,350.5 826.167,350.5 831.5,350.5C 831.5,352.833 831.5,355.167 831.5,357.5 Z"/></g>
<g><path style="opacity:1" fill="#dcdee1" d="M 958.5,386.5 C 969.728,387.195 981.061,388.362 992.5,390C 999.827,391.911 1006.83,394.577 1013.5,398C 998.923,403.415 984.59,409.415 970.5,416C 966.914,417.108 963.247,417.608 959.5,417.5C 936.129,418.033 913.129,415.533 890.5,410C 908.924,390.357 931.591,382.524 958.5,386.5 Z"/></g>
<g><path style="opacity:1" fill="#dadedf" d="M 210.5,416.5 C 202.14,416.831 193.807,416.498 185.5,415.5C 185.023,414.522 184.357,413.689 183.5,413C 166.327,412.385 150.66,407.385 136.5,398C 138.001,396.748 139.668,395.748 141.5,395C 142.823,394.184 143.489,393.017 143.5,391.5C 175.851,386.069 208.185,386.235 240.5,392C 245.534,401.368 253.201,407.368 263.5,410C 246.072,413.807 228.406,415.974 210.5,416.5 Z"/></g>
<g><path style="opacity:0.933" fill="#001c32" d="M 553.5,520.5 C 553.036,590.37 551.536,660.37 549,730.5C 549.729,734.887 551.729,738.553 555,741.5C 560.694,738.111 566.861,736.778 573.5,737.5C 573.333,685.832 573.5,634.166 574,582.5C 574.079,560.468 574.746,538.468 576,516.5C 578.149,590.161 579.983,663.827 581.5,737.5C 588.5,737.5 595.5,737.5 602.5,737.5C 601.747,665.791 603.08,594.124 606.5,522.5C 606.5,521.833 606.5,521.167 606.5,520.5C 612.947,520.449 615.614,523.616 614.5,530C 608.869,597.359 609.202,664.526 615.5,731.5C 618.137,737.41 621.303,737.744 625,732.5C 626.125,672.472 627.791,612.472 630,552.5C 640.644,540.514 652.478,530.014 665.5,521C 672.069,519.883 676.402,522.55 678.5,529C 668.677,540.823 658.177,551.989 647,562.5C 643.667,620.5 643.667,678.5 647,736.5C 652.352,733.204 658.185,731.871 664.5,732.5C 664.5,718.167 664.5,703.833 664.5,689.5C 668.108,676.526 670.441,663.192 671.5,649.5C 675.519,652.702 677.852,656.869 678.5,662C 674.381,673.592 673.548,685.426 676,697.5C 679.047,688.17 682.547,679.17 686.5,670.5C 686.5,699.167 686.5,727.833 686.5,756.5C 686.443,757.609 686.11,758.609 685.5,759.5C 682.884,760.48 680.551,761.98 678.5,764C 684.32,770.305 688.32,777.638 690.5,786C 688.693,793.6 686.026,800.767 682.5,807.5C 681.957,807.56 681.624,807.893 681.5,808.5C 685.272,814.936 685.272,821.27 681.5,827.5C 678.105,823.102 674.105,819.436 669.5,816.5C 667.715,812.88 665.048,810.047 661.5,808C 655.829,807.469 650.162,806.969 644.5,806.5C 597.498,803.858 550.498,803.858 503.5,806.5C 499.821,806.724 496.154,807.058 492.5,807.5C 487.503,808.755 483.337,811.422 480,815.5C 478.486,809.777 476.82,804.11 475,798.5C 471.922,796.069 468.422,795.069 464.5,795.5C 458.715,784.357 461.215,775.357 472,768.5C 470.211,728.368 466.878,688.368 462,648.5C 461.667,648.833 461.333,649.167 461,649.5C 462.04,645.645 461.54,641.978 459.5,638.5C 460.833,637.167 462.167,635.833 463.5,634.5C 460.962,630.538 459.962,626.204 460.5,621.5C 451.949,622.043 443.616,621.043 435.5,618.5C 438.345,615.968 439.345,612.968 438.5,609.5C 436.698,610.986 434.698,611.986 432.5,612.5C 432.054,607.148 431.387,601.815 430.5,596.5C 416.878,600.655 403.211,604.655 389.5,608.5C 385.417,607.639 381.417,606.473 377.5,605C 372.628,602.105 367.795,599.272 363,596.5C 339.631,600.155 316.131,601.322 292.5,600C 279.708,594.235 266.374,590.402 252.5,588.5C 252.167,587.833 251.833,587.167 251.5,586.5C 250.486,583.311 248.82,580.478 246.5,578C 248.886,575.293 249.052,572.46 247,569.5C 244.592,567.044 241.759,565.211 238.5,564C 243.476,564.406 247.643,566.573 251,570.5C 255.343,569.49 258.51,566.99 260.5,563C 242.888,557.026 225.888,549.692 209.5,541C 207.3,538.766 205.467,536.266 204,533.5C 203.293,527.675 203.627,522.009 205,516.5C 200.167,513.167 195.001,510.5 189.5,508.5C 188.827,501.486 191.827,497.152 198.5,495.5C 214.706,499.801 231.04,503.635 247.5,507C 251.638,508.978 254.971,511.811 257.5,515.5C 253.697,521.972 248.364,526.639 241.5,529.5C 235.848,530.626 235.181,533.126 239.5,537C 251.331,540.678 263.331,541.344 275.5,539C 281.166,536.981 286.833,535.314 292.5,534C 290.129,540.947 287.462,547.781 284.5,554.5C 283.5,555.833 282.5,557.167 281.5,558.5C 273.835,554.664 269.835,556.997 269.5,565.5C 269.54,567.429 269.873,569.262 270.5,571C 279.101,574.408 287.601,574.241 296,570.5C 297.459,573.756 299.626,576.423 302.5,578.5C 307.771,575.436 307.771,572.27 302.5,569C 313.003,565.748 322.67,560.915 331.5,554.5C 332.647,561.773 334.313,568.773 336.5,575.5C 336.5,575.833 336.5,576.167 336.5,576.5C 335.596,577.209 335.263,578.209 335.5,579.5C 336.833,579.5 338.167,579.5 339.5,579.5C 357.593,582.852 372.426,577.185 384,562.5C 385.211,566.279 387.377,569.279 390.5,571.5C 390.953,572.458 391.619,573.292 392.5,574C 394.81,574.497 397.143,574.663 399.5,574.5C 398.688,576.741 399.688,578.074 402.5,578.5C 414.538,572.643 425.038,564.643 434,554.5C 434.667,560.5 434.667,566.5 434,572.5C 433.358,574.762 432.525,576.929 431.5,579C 437.491,585.147 441.825,592.313 444.5,600.5C 445.246,604.31 446.246,604.31 447.5,600.5C 448.167,600.167 448.833,599.833 449.5,599.5C 450.167,599.5 450.833,599.5 451.5,599.5C 455.995,599.664 459.828,601.331 463,604.5C 466.327,618.24 470.994,618.907 477,606.5C 477.333,607.167 477.667,607.833 478,608.5C 484.154,651.284 486.654,694.284 485.5,737.5C 494.167,737.5 502.833,737.5 511.5,737.5C 509.235,677.721 511.068,618.055 517,558.5C 518.869,619.486 519.702,680.486 519.5,741.5C 525.233,742.105 530.566,740.938 535.5,738C 542.142,665.733 542.142,593.567 535.5,521.5C 524.729,511.901 514.063,502.067 503.5,492C 495.302,484.137 487.469,475.97 480,467.5C 478.89,459.518 477.89,451.518 477,443.5C 474.699,430.098 470.532,417.431 464.5,405.5C 465.942,404.18 466.608,402.514 466.5,400.5C 467.167,400.5 467.5,400.167 467.5,399.5C 478.35,390.352 489.85,389.352 502,396.5C 504.428,401.45 506.261,406.617 507.5,412C 499.951,427.793 497.785,444.293 501,461.5C 519.061,478.893 536.395,496.893 553,515.5C 553.494,517.134 553.66,518.801 553.5,520.5 Z M 482.5,408.5 C 482.372,410.655 482.872,412.655 484,414.5C 486.292,415.601 487.792,414.768 488.5,412C 486.868,410.18 484.868,409.014 482.5,408.5 Z M 451.5,599.5 C 450.833,599.5 450.167,599.5 449.5,599.5C 450.167,596.833 450.833,596.833 451.5,599.5 Z M 444.5,600.5 C 445.5,600.5 446.5,600.5 447.5,600.5C 446.246,604.31 445.246,604.31 444.5,600.5 Z M 442.5,604.5 C 443.688,606.496 443.021,607.329 440.5,607C 441.381,606.292 442.047,605.458 442.5,604.5 Z"/></g>
<g><path style="opacity:1" fill="#dde0e2" d="M 339.5,399.5 C 341.497,401.513 343.164,403.846 344.5,406.5C 341.69,411.144 338.023,414.977 333.5,418C 338.855,419.588 343.855,421.921 348.5,425C 331.197,439.25 312.531,441.25 292.5,431C 285.509,426.736 284.843,421.736 290.5,416C 297.485,414.116 304.152,411.45 310.5,408C 320.777,406.848 330.444,404.014 339.5,399.5 Z"/></g>
<g><path style="opacity:1" fill="#dbdfe0" d="M 868.5,416.5 C 868.938,416.435 869.272,416.601 869.5,417C 857.59,434.779 840.924,441.945 819.5,438.5C 814.021,433.864 808.354,429.364 802.5,425C 807.118,421.858 812.118,419.524 817.5,418C 812.977,414.977 809.31,411.144 806.5,406.5C 807.803,404.032 809.303,401.699 811,399.5C 828.864,409.508 848.031,415.174 868.5,416.5 Z"/></g>
<g><path style="opacity:1" fill="#e2e7e8" d="M 173.5,450.5 C 171.471,447.473 168.804,445.14 165.5,443.5C 173.761,440.2 181.761,436.534 189.5,432.5C 210.783,430.788 231.95,428.122 253,424.5C 263.591,428.628 273.258,434.294 282,441.5C 282.536,443.869 283.703,445.869 285.5,447.5C 280.038,449.894 274.371,451.727 268.5,453C 236.608,459.674 204.941,458.841 173.5,450.5 Z"/></g>
<g><path style="opacity:1" fill="#e9eced" d="M 893.5,428.5 C 925.077,428.45 955.744,433.616 985.5,444C 979.073,447.542 972.739,451.042 966.5,454.5C 953.053,456.079 939.553,457.079 926,457.5C 905.515,457.552 885.682,454.218 866.5,447.5C 867.559,445.466 868.559,443.466 869.5,441.5C 876.851,440.144 882.185,436.144 885.5,429.5C 888.086,428.52 890.753,428.187 893.5,428.5 Z"/></g>
<g><path style="opacity:1" fill="#e4e7e8" d="M 342.5,441.5 C 358.131,440.659 360.464,445.492 349.5,456C 353.83,457.161 357.497,459.327 360.5,462.5C 348.51,470.397 335.51,472.564 321.5,469C 316.468,467.402 311.968,464.902 308,461.5C 306.729,457.834 307.896,455.334 311.5,454C 322.621,451.427 332.955,447.261 342.5,441.5 Z"/></g>
<g><path style="opacity:1" fill="#e9ebed" d="M 815.5,445.5 C 822.595,450.614 830.595,453.28 839.5,453.5C 840.458,454.962 841.624,456.295 843,457.5C 843.667,458.833 843.667,460.167 843,461.5C 839.703,464.567 835.869,466.733 831.5,468C 820.229,470.816 808.895,471.149 797.5,469C 789.865,465.759 789.532,461.759 796.5,457C 798.555,456.313 800.221,455.146 801.5,453.5C 798.641,449.19 798.975,445.19 802.5,441.5C 806.412,444.294 810.745,445.627 815.5,445.5 Z"/></g>
<g><path style="opacity:1" fill="#e1e7e8" d="M 298.5,474.5 C 290.513,482.96 280.847,488.793 269.5,492C 245.744,496.828 222.078,496.661 198.5,491.5C 198.395,486.098 201.062,482.931 206.5,482C 221.302,476.901 235.969,471.734 250.5,466.5C 267.387,463.878 283.387,466.544 298.5,474.5 Z"/></g>
<g><path style="opacity:1" fill="#021626" d="M 348.5,482.5 C 345.61,488.061 341.61,492.728 336.5,496.5C 337.706,499.079 339.039,501.579 340.5,504C 343.482,504.498 346.482,504.665 349.5,504.5C 347.708,505.309 345.708,505.809 343.5,506C 350.725,508.491 358.059,508.991 365.5,507.5C 366.213,510.594 367.213,513.594 368.5,516.5C 366.746,521.842 364.079,526.675 360.5,531C 368.923,531.716 377.256,531.216 385.5,529.5C 386.602,533.473 387.935,537.473 389.5,541.5C 375.552,544.047 361.552,546.38 347.5,548.5C 342.45,556.934 338.783,565.934 336.5,575.5C 334.313,568.773 332.647,561.773 331.5,554.5C 322.67,560.915 313.003,565.748 302.5,569C 307.771,572.27 307.771,575.436 302.5,578.5C 299.626,576.423 297.459,573.756 296,570.5C 287.601,574.241 279.101,574.408 270.5,571C 269.873,569.262 269.54,567.429 269.5,565.5C 269.835,556.997 273.835,554.664 281.5,558.5C 282.545,563.045 285.379,565.712 290,566.5C 316.056,560.442 336.723,546.442 352,524.5C 352.591,523.517 352.257,522.85 351,522.5C 342.23,520.016 333.396,519.85 324.5,522C 310.922,532.61 297.589,543.444 284.5,554.5C 287.462,547.781 290.129,540.947 292.5,534C 286.833,535.314 281.166,536.981 275.5,539C 263.331,541.344 251.331,540.678 239.5,537C 235.181,533.126 235.848,530.626 241.5,529.5C 266.103,535.961 288.77,531.794 309.5,517C 316.306,511.698 315.306,508.032 306.5,506C 310.5,502 314.5,498 318.5,494C 315.312,493.245 312.145,492.411 309,491.5C 290.777,497.505 273.61,505.505 257.5,515.5C 254.971,511.811 251.638,508.978 247.5,507C 231.04,503.635 214.706,499.801 198.5,495.5C 198.5,494.167 198.5,492.833 198.5,491.5C 222.078,496.661 245.744,496.828 269.5,492C 280.847,488.793 290.513,482.96 298.5,474.5C 301.297,472.239 303.63,469.573 305.5,466.5C 318.486,475.385 332.819,480.718 348.5,482.5 Z"/></g>
<g><path style="opacity:1" fill="#e6eaeb" d="M 948.5,481.5 C 951.925,483.761 953.259,487.094 952.5,491.5C 951.209,491.263 950.209,491.596 949.5,492.5C 932.679,496.597 915.679,497.43 898.5,495C 882.212,492.74 867.212,487.24 853.5,478.5C 859.355,471.072 867.021,467.072 876.5,466.5C 900.915,469.72 924.915,474.72 948.5,481.5 Z"/></g>
<g><path style="opacity:0.012" fill="#001a30" d="M 150.5,478.5 C 149.427,477.749 149.26,476.749 150,475.5C 150.483,476.448 150.649,477.448 150.5,478.5 Z"/></g>
<g><path style="opacity:1" fill="#d9e1e2" d="M 785.5,474.5 C 792.046,478.439 799.046,481.272 806.5,483C 810.693,488.36 814.693,493.86 818.5,499.5C 806.907,505.656 795.24,505.823 783.5,500C 778.919,496.562 777.419,492.062 779,486.5C 780.925,482.313 783.092,478.313 785.5,474.5 Z"/></g>
<g><path style="opacity:0.113" fill="#001a30" d="M 150.5,478.5 C 154.071,481.322 154.071,483.989 150.5,486.5C 150.218,484.013 150.218,481.347 150.5,478.5 Z"/></g>
<g><path style="opacity:1" fill="#e0e6e7" d="M 349.5,504.5 C 346.482,504.665 343.482,504.498 340.5,504C 339.039,501.579 337.706,499.079 336.5,496.5C 341.61,492.728 345.61,488.061 348.5,482.5C 360.08,476.582 368.413,479.582 373.5,491.5C 367.512,499.495 359.512,503.828 349.5,504.5 Z"/></g>
<g><path style="opacity:1" fill="#e6e8e8" d="M 241.5,529.5 C 248.364,526.639 253.697,521.972 257.5,515.5C 273.61,505.505 290.777,497.505 309,491.5C 312.145,492.411 315.312,493.245 318.5,494C 314.5,498 310.5,502 306.5,506C 315.306,508.032 316.306,511.698 309.5,517C 288.77,531.794 266.103,535.961 241.5,529.5 Z"/></g>
<g><path style="opacity:1" fill="#e5e7e8" d="M 897.5,516.5 C 901.938,520.436 906.271,524.602 910.5,529C 895.411,532.975 880.077,534.309 864.5,533C 863.627,531.955 862.627,531.122 861.5,530.5C 856.038,524.507 849.538,519.84 842,516.5C 839.778,512.164 840.278,508.164 843.5,504.5C 839.728,500.774 835.728,497.274 831.5,494C 831.833,493.667 832.167,493.333 832.5,493C 837.833,492.333 843.167,492.333 848.5,493C 865.668,499.252 882.001,507.085 897.5,516.5 Z"/></g>
<g><path style="opacity:1" fill="#d3d7d9" d="M 753.5,525.5 C 754.276,521.948 755.609,518.614 757.5,515.5C 761.837,511.662 766.837,509.495 772.5,509C 779.24,515.07 785.24,521.737 790.5,529C 787.394,530.636 784.227,532.136 781,533.5C 771.837,530.752 762.671,528.085 753.5,525.5 Z"/></g>
<g><path style="opacity:1" fill="#e0e6e8" d="M 385.5,529.5 C 377.256,531.216 368.923,531.716 360.5,531C 364.079,526.675 366.746,521.842 368.5,516.5C 371.814,513.839 375.481,511.672 379.5,510C 382.634,509.21 385.634,509.543 388.5,511C 392.032,514.033 395.032,517.533 397.5,521.5C 393.161,523.669 389.161,526.335 385.5,529.5 Z"/></g>
<g><path style="opacity:0.979" fill="#002033" d="M 757.5,515.5 C 755.609,518.614 754.276,521.948 753.5,525.5C 751.264,527.893 748.597,529.727 745.5,531C 753.312,532.354 760.978,534.02 768.5,536C 766.84,537.488 765.84,539.321 765.5,541.5C 763.833,541.5 762.167,541.5 760.5,541.5C 758.586,542.185 756.586,542.685 754.5,543C 747.592,543.393 740.925,543.559 734.5,543.5C 730.707,540.404 726.374,539.237 721.5,540C 720.978,540.561 720.645,541.228 720.5,542C 721.409,544.895 722.409,547.728 723.5,550.5C 721.616,550.712 720.283,551.712 719.5,553.5C 724.475,560.31 729.642,566.976 735,573.5C 734.255,576.383 733.421,579.383 732.5,582.5C 732.972,587.143 735.472,590.143 740,591.5C 742.639,587.361 745.472,583.361 748.5,579.5C 754.719,583.474 760.886,583.474 767,579.5C 775.266,585.047 783.433,590.714 791.5,596.5C 793.316,603.403 794.149,610.403 794,617.5C 780.197,614.845 766.363,614.845 752.5,617.5C 749.339,616.087 746.339,614.42 743.5,612.5C 745.226,610.772 746.559,608.772 747.5,606.5C 741.424,599.691 733.758,596.357 724.5,596.5C 724.578,606.433 721.578,615.267 715.5,623C 707.823,623.834 700.156,624.668 692.5,625.5C 691.433,640.638 689.433,655.638 686.5,670.5C 682.547,679.17 679.047,688.17 676,697.5C 673.548,685.426 674.381,673.592 678.5,662C 677.852,656.869 675.519,652.702 671.5,649.5C 670.441,663.192 668.108,676.526 664.5,689.5C 658.893,635.201 669.893,584.534 697.5,537.5C 700.315,536.874 702.815,535.54 705,533.5C 706.933,537.698 709.599,541.365 713,544.5C 713.147,538.777 712.814,533.111 712,527.5C 712.739,526.426 713.739,525.759 715,525.5C 717.968,527.631 720.801,529.964 723.5,532.5C 728.73,528.762 732.73,523.929 735.5,518C 734.584,517.722 733.918,517.222 733.5,516.5C 736.279,516.721 738.946,516.388 741.5,515.5C 746.812,512.923 752.145,512.923 757.5,515.5 Z"/></g>
<g><path style="opacity:1" fill="#e9ebeb" d="M 281.5,558.5 C 282.5,557.167 283.5,555.833 284.5,554.5C 297.589,543.444 310.922,532.61 324.5,522C 333.396,519.85 342.23,520.016 351,522.5C 352.257,522.85 352.591,523.517 352,524.5C 336.723,546.442 316.056,560.442 290,566.5C 285.379,565.712 282.545,563.045 281.5,558.5 Z"/></g>
<g><path style="opacity:1" fill="#eceeee" d="M 862.5,551.5 C 865.402,554.237 867.735,557.404 869.5,561C 867.748,564.71 864.748,566.544 860.5,566.5C 850.373,563.803 840.373,560.803 830.5,557.5C 821.376,546.539 812.043,535.705 802.5,525C 803.878,523.287 805.545,521.953 807.5,521C 816.611,519.601 825.278,520.935 833.5,525C 842.737,534.288 852.404,543.122 862.5,551.5 Z"/></g>
<g><path style="opacity:1" fill="#dfe2e2" d="M 399.5,574.5 C 397.143,574.663 394.81,574.497 392.5,574C 391.619,573.292 390.953,572.458 390.5,571.5C 391.904,564.52 394.57,558.02 398.5,552C 409.272,549.281 418.939,544.447 427.5,537.5C 432.331,541.512 432.831,546.178 429,551.5C 420.436,560.909 410.603,568.576 399.5,574.5 Z"/></g>
<g><path style="opacity:1" fill="#dbdee0" d="M 734.5,543.5 C 738.396,547.11 743.063,549.11 748.5,549.5C 751.39,550.245 754.39,550.912 757.5,551.5C 759.043,559.092 760.043,566.759 760.5,574.5C 743.754,573.294 731.421,565.294 723.5,550.5C 722.409,547.728 721.409,544.895 720.5,542C 720.645,541.228 720.978,540.561 721.5,540C 726.374,539.237 730.707,540.404 734.5,543.5 Z"/></g>
<g><path style="opacity:1" fill="#dbdfe1" d="M 389.5,541.5 C 381.684,563.004 366.017,575.337 342.5,578.5C 339.918,578.975 337.918,578.308 336.5,576.5C 336.5,576.167 336.5,575.833 336.5,575.5C 338.783,565.934 342.45,556.934 347.5,548.5C 361.552,546.38 375.552,544.047 389.5,541.5 Z"/></g>
<g><path style="opacity:1" fill="#d4dbde" d="M 760.5,541.5 C 762.167,541.5 763.833,541.5 765.5,541.5C 777.644,544.561 789.977,546.728 802.5,548C 806.422,555.7 811.422,562.533 817.5,568.5C 818.141,569.482 818.807,570.482 819.5,571.5C 817.867,575.633 814.867,578.133 810.5,579C 786.814,575.978 770.147,563.478 760.5,541.5 Z"/></g>
<g><path style="opacity:1" fill="#768993" d="M 748.5,549.5 C 752.012,548.945 755.012,549.612 757.5,551.5C 754.39,550.912 751.39,550.245 748.5,549.5 Z"/></g>
<g><path style="opacity:0.055" fill="#092225" d="M 172.5,553.5 C 176.138,553.738 178.971,555.404 181,558.5C 186.395,566.12 190.895,574.287 194.5,583C 191.733,588.8 188.566,588.967 185,583.5C 178.518,575.844 173.018,567.511 168.5,558.5C 169.16,556.185 170.493,554.519 172.5,553.5 Z"/></g>
<g><path style="opacity:0.047" fill="#001d35" d="M 232.5,579.5 C 233.254,577.554 234.588,576.721 236.5,577C 235.529,578.481 234.196,579.315 232.5,579.5 Z"/></g>
<g><path style="opacity:1" fill="#647782" d="M 336.5,576.5 C 337.918,578.308 339.918,578.975 342.5,578.5C 341.791,579.404 340.791,579.737 339.5,579.5C 338.167,579.5 336.833,579.5 335.5,579.5C 335.263,578.209 335.596,577.209 336.5,576.5 Z"/></g>
<g><path style="opacity:0.029" fill="#001d35" d="M 230.5,580.5 C 230.842,579.662 231.508,579.328 232.5,579.5C 232.158,580.338 231.492,580.672 230.5,580.5 Z"/></g>
<g><path style="opacity:0.021" fill="#001d35" d="M 230.5,580.5 C 229.749,581.573 228.749,581.74 227.5,581C 228.448,580.517 229.448,580.351 230.5,580.5 Z"/></g>
<g><path style="opacity:0.249" fill="#374040" d="M 251.5,586.5 C 251.833,587.167 252.167,587.833 252.5,588.5C 250.558,596.035 246.391,597.369 240,592.5C 239.493,591.004 239.993,589.837 241.5,589C 244.608,587.241 247.941,586.408 251.5,586.5 Z"/></g>
<g><path style="opacity:0.034" fill="#0e2427" d="M 685.5,759.5 C 686.11,758.609 686.443,757.609 686.5,756.5C 692.814,750.494 700.147,748.994 708.5,752C 709.91,752.368 710.91,753.201 711.5,754.5C 703.974,762.339 695.308,764.005 685.5,759.5 Z"/></g>
<g><path style="opacity:1" fill="#eeeff0" d="M 510.5,775.5 C 508.167,774.833 505.833,774.167 503.5,773.5C 549.205,770.501 594.871,770.834 640.5,774.5C 640.5,778.833 640.5,783.167 640.5,787.5C 597.167,787.5 553.833,787.5 510.5,787.5C 510.5,783.5 510.5,779.5 510.5,775.5 Z"/></g>
<g><path style="opacity:0.969" fill="#6e818d" d="M 503.5,773.5 C 505.833,774.167 508.167,774.833 510.5,775.5C 503.492,775.666 496.492,775.5 489.5,775C 494.118,774.006 498.785,773.506 503.5,773.5 Z"/></g>
<g><path style="opacity:0.984" fill="#001c30" d="M 464.5,795.5 C 468.422,795.069 471.922,796.069 475,798.5C 476.82,804.11 478.486,809.777 480,815.5C 483.337,811.422 487.503,808.755 492.5,807.5C 498.31,808.49 504.31,808.823 510.5,808.5C 510.5,812.5 510.5,816.5 510.5,820.5C 485.228,823.264 478.394,835.931 490,858.5C 493.761,854.973 495.261,850.639 494.5,845.5C 498.227,845.195 500.894,846.695 502.5,850C 505.447,850.112 506.78,851.612 506.5,854.5C 529.502,854.667 552.502,854.5 575.5,854C 589.359,853.298 603.025,852.131 616.5,850.5C 624.528,850.831 632.528,850.498 640.5,849.5C 641.188,848.145 642.188,847.145 643.5,846.5C 646.391,845.597 649.391,845.264 652.5,845.5C 652.5,844.167 652.5,842.833 652.5,841.5C 655.482,841.896 658.149,841.229 660.5,839.5C 654.002,835.083 647.335,830.916 640.5,827C 598.275,826.156 556.275,823.989 514.5,820.5C 556.167,820.5 597.833,820.5 639.5,820.5C 638.742,815.729 640.075,811.729 643.5,808.5C 647.131,808.16 650.464,808.994 653.5,811C 656.76,813.752 659.427,816.919 661.5,820.5C 664.193,819.153 666.86,817.82 669.5,816.5C 674.105,819.436 678.105,823.102 681.5,827.5C 685.272,821.27 685.272,814.936 681.5,808.5C 681.624,807.893 681.957,807.56 682.5,807.5C 696.64,823.153 693.973,835.32 674.5,844C 675.617,847.073 675.784,850.24 675,853.5C 667.57,867.593 656.07,876.427 640.5,880C 632.984,892.518 623.651,903.518 612.5,913C 604.551,918.696 595.884,922.529 586.5,924.5C 581.5,924.5 576.5,924.5 571.5,924.5C 553.48,919.988 537.48,911.488 523.5,899C 521.513,897.681 520.346,895.848 520,893.5C 518.775,888.915 518.275,884.248 518.5,879.5C 509.797,878.741 501.463,876.574 493.5,873C 483.616,860.784 474.116,848.284 465,835.5C 458.083,823.446 460.583,813.613 472.5,806C 468.888,803.221 466.222,799.721 464.5,795.5 Z"/></g>
<g><path style="opacity:1" fill="#f5f8f8" d="M 644.5,806.5 C 644.167,807.167 643.833,807.833 643.5,808.5C 640.075,811.729 638.742,815.729 639.5,820.5C 597.833,820.5 556.167,820.5 514.5,820.5C 513.167,820.5 511.833,820.5 510.5,820.5C 510.5,816.5 510.5,812.5 510.5,808.5C 508.167,807.833 505.833,807.167 503.5,806.5C 550.498,803.858 597.498,803.858 644.5,806.5 Z"/></g>
<g><path style="opacity:1" fill="#6c818c" d="M 503.5,806.5 C 505.833,807.167 508.167,807.833 510.5,808.5C 504.31,808.823 498.31,808.49 492.5,807.5C 496.154,807.058 499.821,806.724 503.5,806.5 Z"/></g>
<g><path style="opacity:0.891" fill="#5c7a89" d="M 644.5,806.5 C 650.162,806.969 655.829,807.469 661.5,808C 665.048,810.047 667.715,812.88 669.5,816.5C 666.86,817.82 664.193,819.153 661.5,820.5C 659.427,816.919 656.76,813.752 653.5,811C 650.464,808.994 647.131,808.16 643.5,808.5C 643.833,807.833 644.167,807.167 644.5,806.5 Z"/></g>
<g><path style="opacity:1" fill="#010f28" d="M 510.5,820.5 C 511.833,820.5 513.167,820.5 514.5,820.5C 556.275,823.989 598.275,826.156 640.5,827C 647.335,830.916 654.002,835.083 660.5,839.5C 658.149,841.229 655.482,841.896 652.5,841.5C 600.863,837.034 549.196,836.534 497.5,840C 496.242,841.741 495.242,843.574 494.5,845.5C 495.261,850.639 493.761,854.973 490,858.5C 478.394,835.931 485.228,823.264 510.5,820.5 Z"/></g>
<g><path style="opacity:1" fill="#c1cbcd" d="M 652.5,841.5 C 652.5,842.833 652.5,844.167 652.5,845.5C 649.391,845.264 646.391,845.597 643.5,846.5C 642.737,845.732 641.737,845.232 640.5,845C 596.856,840.841 553.189,840.508 509.5,844C 544.948,849.596 580.615,851.763 616.5,850.5C 603.025,852.131 589.359,853.298 575.5,854C 552.502,854.5 529.502,854.667 506.5,854.5C 506.78,851.612 505.447,850.112 502.5,850C 500.894,846.695 498.227,845.195 494.5,845.5C 495.242,843.574 496.242,841.741 497.5,840C 549.196,836.534 600.863,837.034 652.5,841.5 Z"/></g>
<g><path style="opacity:1" fill="#f5f7f7" d="M 643.5,846.5 C 642.188,847.145 641.188,848.145 640.5,849.5C 632.528,850.498 624.528,850.831 616.5,850.5C 580.615,851.763 544.948,849.596 509.5,844C 553.189,840.508 596.856,840.841 640.5,845C 641.737,845.232 642.737,845.732 643.5,846.5 Z"/></g>
</svg>
